<?xml version='1.0' encoding='iso-8859-1'?>
<!DOCTYPE svg PUBLIC '-//W3C//DTD SVG 1.1//EN' 'http://www.w3.org/Graphics/SVG/1.1/DTD/svg11.dtd'>
<svg version="1.1" xmlns="http://www.w3.org/2000/svg" viewBox="0 0 297 297" xmlns:xlink="http://www.w3.org/1999/xlink" enable-background="new 0 0 297 297">
  <path d="m84.363,240.204c-0.168-1.208-1.573-7.652-2.827-15.557 2.479,3.23 5.074,6.354 7.772,9.315 1.438,15.892-0.665,39.099-8.556,43.364-5.084,2.749-6.977,9.099-4.229,14.183 1.894,3.503 5.495,5.49 9.215,5.49 1.68,0 3.386-0.405 4.968-1.261 10.978-5.935 17.485-19.217 19.343-39.479 0.159-1.729 0.275-3.433 0.36-5.091 9.13,4.971 21.345,9.505 32.139,9.505 10.049,0 21.336-3.933 30.215-8.488 0.078,1.336 0.177,2.697 0.304,4.074 1.858,20.261 8.366,33.544 19.343,39.479 1.582,0.855 3.286,1.261 4.968,1.261 3.72,0 7.321-1.987 9.215-5.49 2.748-5.084 0.855-11.434-4.229-14.183-7.474-4.041-9.749-25.305-8.728-41.065 7.771-8.115 14.67-17.622 20.556-27.062-1.148,4.277-2.047,6.873-2.088,6.987-1.634,4.585 0.107,9.69 4.201,12.319 4.095,2.63 9.462,2.09 12.951-1.303 46.71-45.422 53.229-91.424 50.474-122.018-3.304-36.661-21.934-67.765-37.785-78.418-10.156-6.823-20.747-10.282-31.48-10.282-7.904,0-14.466,1.888-19.263,3.939-8.461-8.258-25.468-20.423-52.25-20.423-18.684,0-39.035,6.001-60.49,17.836-38.154,21.046-60.045,59.012-61.64,106.901-0.822,24.685 4.001,51.005 13.582,74.111 9.564,23.068 22.998,41.015 37.827,50.534 1.743,1.118 3.732,1.679 5.715,1.679 2.184,0 4.361-0.68 6.192-2.041 2.829-2.1 4.694-5.44 4.225-8.816zm58.186-.459c-9.24,0-22.896-6.478-28.615-11.119-17.531-14.235-31.638-40.341-38.922-55.724-1.294-16.395 0.428-23.498 2.242-26.561 1.304-2.202 3.041-2.826 9.253-4.136l1.56-.332c48.506-10.527 76.308-34.358 90.032-50.143 5.969,10.743 15.411,25.681 28.761,41.094 5.615,6.483 8.928,14.375 10.705,22.688-0.008,0.02-0.017,0.035-0.023,0.055-0.174,0.474-16.615,44.581-41.25,68.488-0.059,0.055-0.116,0.11-0.174,0.168-1.616,1.559-3.267,3.031-4.949,4.399-5.725,4.646-19.383,11.123-28.62,11.123zm97.399-58.349c1.205-20.435-1.78-44.394-17.27-62.273-22.611-26.106-33.102-51.159-33.199-51.396-1.542-3.756-5.114-6.282-9.17-6.482-4.039-0.191-7.858,1.965-9.759,5.552-0.214,0.404-22.165,40.568-86.92,54.622l-1.443,.309c-7.079,1.492-16.774,3.537-22.941,13.947-5.595,9.445-6.935,23.837-4.344,46.665 1.103,9.707 2.11,17.937 3.018,24.896-12.264-20.77-21.222-50.539-20.181-81.801 0.948-28.457 10.536-67.046 50.832-89.273 18.323-10.106 35.273-15.231 50.381-15.231 28.107,0 40.766,17.826 41.238,18.508 1.648,2.479 4.168,4.227 7.115,4.65 2.92,0.418 5.779-0.327 8.053-2.206 0.607-0.434 6.492-4.467 15.106-4.467 6.5,0 13.165,2.263 19.806,6.726 9.85,6.619 25.755,31.194 28.614,62.924 1.734,19.252-0.959,45.785-18.936,74.33z"/>
</svg>
